<svg xmlns="http://www.w3.org/2000/svg" viewBox="0 0 128 128" role="img" aria-label="My Prompt">
  <defs>
    <linearGradient id="bg" x1="18" y1="10" x2="110" y2="118" gradientUnits="userSpaceOnUse">
      <stop offset="0" stop-color="#7c3aed"/>
      <stop offset="0.52" stop-color="#2563eb"/>
      <stop offset="1" stop-color="#14b8a6"/>
    </linearGradient>
    <filter id="shadow" x="-20%" y="-20%" width="140%" height="140%">
      <feDropShadow dx="0" dy="8" stdDeviation="8" flood-color="#111827" flood-opacity="0.25"/>
    </filter>
  </defs>
  <rect x="12" y="12" width="104" height="104" rx="24" fill="url(#bg)" filter="url(#shadow)"/>
  <path d="M34 85V43h10l20 24 20-24h10v42H82V62L66 82h-4L46 62v23H34Z" fill="#fff"/>
  <path d="M91 28l3.8 8.2L103 40l-8.2 3.8L91 52l-3.8-8.2L79 40l8.2-3.8L91 28Z" fill="#fef08a"/>
  <path d="M33 30l2.4 5.2 5.2 2.4-5.2 2.4L33 45.2 30.6 40 25.4 37.6l5.2-2.4L33 30Z" fill="#ccfbf1"/>
</svg>
